# xmcd CD database file
#
# Track frame offsets:
#	150
#	10749
#	23828
#	34971
#	50219
#	60778
#	72812
#	86014
#	99555
#	110074
#
# Disc length: 1617 seconds
#
# Revision: 0
# Processed by: cddbd v1.5.2PL0 Copyright (c) Steve Scherf et al.
# Submitted via: CDex 1.70beta2
#
DISCID=7e064f0a
DTITLE=CL - Country Legends - D1
DYEAR=1900
DGENRE=Country
TTITLE0=Take My Hand For Awhile - Don Williams
TTITLE1=What I've Got In Mind - Billie Jo Spears
TTITLE2=Send Me the Pillow - Hank Lockin
TTITLE3=Harper Valley PTA - Jeanie C. Riley
TTITLE4=King of the Road - Roger Miller
TTITLE5=A Poor Man's Roses - Patsy Cline
TTITLE6=Silver Wings - Freddy Fender
TTITLE7=D.I.V.O.R.C.E. - Dottie West
TTITLE8=He'll Have To Go - Jim Revees
TTITLE9=I'm So Lonesome I Could Cry - Billy Joe Spears
EXTD=
EXTT0=
EXTT1=
EXTT2=
EXTT3=
EXTT4=
EXTT5=
EXTT6=
EXTT7=
EXTT8=
EXTT9=
PLAYORDER=
